<svg xmlns="http://www.w3.org/2000/svg" viewBox="0 0 24 24" width="512" height="512" style="background:#1a1a0a">
  <style>rect{shape-rendering:crispEdges}</style>
  <rect x="10" y="4" width="1" height="1" fill="#ff88aa"/><rect x="11" y="4" width="1" height="1" fill="#ff88aa"/><rect x="12" y="4" width="1" height="1" fill="#ff88aa"/><rect x="13" y="4" width="1" height="1" fill="#ff88aa"/><rect x="14" y="4" width="1" height="1" fill="#ff88aa"/><rect x="9" y="5" width="1" height="1" fill="#ff88aa"/><rect x="10" y="5" width="1" height="1" fill="#ff88aa"/><rect x="11" y="5" width="1" height="1" fill="#ff88aa"/><rect x="12" y="5" width="1" height="1" fill="#ff88aa"/><rect x="13" y="5" width="1" height="1" fill="#ff88aa"/><rect x="14" y="5" width="1" height="1" fill="#ff88aa"/><rect x="15" y="5" width="1" height="1" fill="#ff88aa"/><rect x="8" y="6" width="1" height="1" fill="#ff88aa"/><rect x="9" y="6" width="1" height="1" fill="#ff88aa"/><rect x="10" y="6" width="1" height="1" fill="#ff00ff"/><rect x="11" y="6" width="1" height="1" fill="#ff88aa"/><rect x="12" y="6" width="1" height="1" fill="#ff88aa"/><rect x="13" y="6" width="1" height="1" fill="#ff88aa"/><rect x="14" y="6" width="1" height="1" fill="#ff00ff"/><rect x="15" y="6" width="1" height="1" fill="#ff88aa"/><rect x="16" y="6" width="1" height="1" fill="#ff88aa"/><rect x="8" y="7" width="1" height="1" fill="#ff88aacc"/><rect x="9" y="7" width="1" height="1" fill="#ff88aa"/><rect x="10" y="7" width="1" height="1" fill="#ff88aa"/><rect x="11" y="7" width="1" height="1" fill="#ff88aa"/><rect x="12" y="7" width="1" height="1" fill="#ff88aa"/><rect x="13" y="7" width="1" height="1" fill="#ff88aa"/><rect x="14" y="7" width="1" height="1" fill="#ff88aa"/><rect x="15" y="7" width="1" height="1" fill="#ff88aa"/><rect x="16" y="7" width="1" height="1" fill="#ff88aacc"/><rect x="8" y="8" width="1" height="1" fill="#ff88aa"/><rect x="9" y="8" width="1" height="1" fill="#ff88aa"/><rect x="10" y="8" width="1" height="1" fill="#ff88aa"/><rect x="11" y="8" width="1" height="1" fill="#ff88aa"/><rect x="12" y="8" width="1" height="1" fill="#ff88aa"/><rect x="13" y="8" width="1" height="1" fill="#ff88aa"/><rect x="14" y="8" width="1" height="1" fill="#ff88aa"/><rect x="15" y="8" width="1" height="1" fill="#ff88aa"/><rect x="16" y="8" width="1" height="1" fill="#ff88aa"/><rect x="1" y="9" width="1" height="1" fill="#ff88aacc"/><rect x="2" y="9" width="1" height="1" fill="#ff88aa"/><rect x="3" y="9" width="1" height="1" fill="#ff88aa"/><rect x="7" y="9" width="1" height="1" fill="#ff88aa"/><rect x="8" y="9" width="1" height="1" fill="#ff88aa"/><rect x="9" y="9" width="1" height="1" fill="#ff88aa"/><rect x="10" y="9" width="1" height="1" fill="#ff88aa"/><rect x="11" y="9" width="1" height="1" fill="#ff88aa"/><rect x="12" y="9" width="1" height="1" fill="#ff88aa"/><rect x="13" y="9" width="1" height="1" fill="#ff88aa"/><rect x="14" y="9" width="1" height="1" fill="#ff88aa"/><rect x="15" y="9" width="1" height="1" fill="#ff88aa"/><rect x="16" y="9" width="1" height="1" fill="#ff88aa"/><rect x="17" y="9" width="1" height="1" fill="#ff88aa"/><rect x="21" y="9" width="1" height="1" fill="#ff88aacc"/><rect x="22" y="9" width="1" height="1" fill="#ff88aa"/><rect x="23" y="9" width="1" height="1" fill="#ff88aa"/><rect x="1" y="10" width="1" height="1" fill="#ff88aa"/><rect x="2" y="10" width="1" height="1" fill="#ff88aa"/><rect x="3" y="10" width="1" height="1" fill="#ff88aacc"/><rect x="4" y="10" width="1" height="1" fill="#ff88aa"/><rect x="5" y="10" width="1" height="1" fill="#ff88aa"/><rect x="6" y="10" width="1" height="1" fill="#ff88aa"/><rect x="7" y="10" width="1" height="1" fill="#ff88aa"/><rect x="8" y="10" width="1" height="1" fill="#ff88aa"/><rect x="9" y="10" width="1" height="1" fill="#ff88aa"/><rect x="10" y="10" width="1" height="1" fill="#ff88aa"/><rect x="11" y="10" width="1" height="1" fill="#ff88aa"/><rect x="12" y="10" width="1" height="1" fill="#ff88aa"/><rect x="13" y="10" width="1" height="1" fill="#ff88aa"/><rect x="14" y="10" width="1" height="1" fill="#ff88aacc"/><rect x="15" y="10" width="1" height="1" fill="#ff88aa"/><rect x="16" y="10" width="1" height="1" fill="#ff88aa"/><rect x="17" y="10" width="1" height="1" fill="#ff88aa"/><rect x="18" y="10" width="1" height="1" fill="#ff88aa"/><rect x="19" y="10" width="1" height="1" fill="#ff88aa"/><rect x="20" y="10" width="1" height="1" fill="#ff88aa"/><rect x="21" y="10" width="1" height="1" fill="#ff88aa"/><rect x="22" y="10" width="1" height="1" fill="#ff88aa"/><rect x="23" y="10" width="1" height="1" fill="#ff88aa"/><rect x="2" y="11" width="1" height="1" fill="#ff88aacc"/><rect x="3" y="11" width="1" height="1" fill="#ff88aa"/><rect x="4" y="11" width="1" height="1" fill="#ff88aa"/><rect x="5" y="11" width="1" height="1" fill="#ff88aa"/><rect x="6" y="11" width="1" height="1" fill="#ff88aa"/><rect x="7" y="11" width="1" height="1" fill="#ff88aa"/><rect x="8" y="11" width="1" height="1" fill="#ff88aa"/><rect x="9" y="11" width="1" height="1" fill="#ff88aa"/><rect x="10" y="11" width="1" height="1" fill="#ff88aa"/><rect x="11" y="11" width="1" height="1" fill="#ff88aa"/><rect x="12" y="11" width="1" height="1" fill="#ff88aa"/><rect x="13" y="11" width="1" height="1" fill="#ff88aa"/><rect x="14" y="11" width="1" height="1" fill="#ff88aacc"/><rect x="15" y="11" width="1" height="1" fill="#ff88aa"/><rect x="16" y="11" width="1" height="1" fill="#ff88aa"/><rect x="17" y="11" width="1" height="1" fill="#ff88aa"/><rect x="18" y="11" width="1" height="1" fill="#ff88aa"/><rect x="19" y="11" width="1" height="1" fill="#ff88aa"/><rect x="20" y="11" width="1" height="1" fill="#ff88aa"/><rect x="21" y="11" width="1" height="1" fill="#ff88aa"/><rect x="22" y="11" width="1" height="1" fill="#ff88aa"/><rect x="2" y="12" width="1" height="1" fill="#ff88aa"/><rect x="3" y="12" width="1" height="1" fill="#ff88aa"/><rect x="4" y="12" width="1" height="1" fill="#ff88aa"/><rect x="5" y="12" width="1" height="1" fill="#ff88aacc"/><rect x="6" y="12" width="1" height="1" fill="#ff88aa"/><rect x="7" y="12" width="1" height="1" fill="#ff88aa"/><rect x="8" y="12" width="1" height="1" fill="#ff88aa"/><rect x="9" y="12" width="1" height="1" fill="#ff88aa"/><rect x="10" y="12" width="1" height="1" fill="#ff88aa"/><rect x="11" y="12" width="1" height="1" fill="#ff88aa"/><rect x="12" y="12" width="1" height="1" fill="#ff88aa"/><rect x="13" y="12" width="1" height="1" fill="#ff88aa"/><rect x="14" y="12" width="1" height="1" fill="#ff88aa"/><rect x="15" y="12" width="1" height="1" fill="#ff88aa"/><rect x="16" y="12" width="1" height="1" fill="#ff88aa"/><rect x="17" y="12" width="1" height="1" fill="#ff88aa"/><rect x="18" y="12" width="1" height="1" fill="#ff88aa"/><rect x="19" y="12" width="1" height="1" fill="#ff88aacc"/><rect x="20" y="12" width="1" height="1" fill="#ff88aa"/><rect x="21" y="12" width="1" height="1" fill="#ff88aa"/><rect x="22" y="12" width="1" height="1" fill="#ff88aa"/><rect x="2" y="13" width="1" height="1" fill="#ff88aa"/><rect x="3" y="13" width="1" height="1" fill="#ff88aa"/><rect x="4" y="13" width="1" height="1" fill="#ff88aa"/><rect x="5" y="13" width="1" height="1" fill="#ff88aacc"/><rect x="6" y="13" width="1" height="1" fill="#ff88aa"/><rect x="7" y="13" width="1" height="1" fill="#ff88aa"/><rect x="8" y="13" width="1" height="1" fill="#ff88aa"/><rect x="9" y="13" width="1" height="1" fill="#ff88aa"/><rect x="10" y="13" width="1" height="1" fill="#ff88aa"/><rect x="11" y="13" width="1" height="1" fill="#ff88aacc"/><rect x="12" y="13" width="1" height="1" fill="#ff88aa"/><rect x="13" y="13" width="1" height="1" fill="#ff88aa"/><rect x="14" y="13" width="1" height="1" fill="#ff88aa"/><rect x="15" y="13" width="1" height="1" fill="#ff88aa"/><rect x="16" y="13" width="1" height="1" fill="#ff88aa"/><rect x="17" y="13" width="1" height="1" fill="#ff88aa"/><rect x="18" y="13" width="1" height="1" fill="#ff88aa"/><rect x="19" y="13" width="1" height="1" fill="#ff88aa"/><rect x="20" y="13" width="1" height="1" fill="#ff88aa"/><rect x="21" y="13" width="1" height="1" fill="#ff88aa"/><rect x="22" y="13" width="1" height="1" fill="#ff88aa"/><rect x="6" y="14" width="1" height="1" fill="#ff88aacc"/><rect x="7" y="14" width="1" height="1" fill="#ff88aa"/><rect x="8" y="14" width="1" height="1" fill="#ff88aa"/><rect x="9" y="14" width="1" height="1" fill="#ff88aa"/><rect x="10" y="14" width="1" height="1" fill="#ff88aa"/><rect x="11" y="14" width="1" height="1" fill="#ff88aa"/><rect x="12" y="14" width="1" height="1" fill="#ff88aa"/><rect x="13" y="14" width="1" height="1" fill="#ff88aa"/><rect x="14" y="14" width="1" height="1" fill="#ff88aa"/><rect x="15" y="14" width="1" height="1" fill="#ff88aa"/><rect x="16" y="14" width="1" height="1" fill="#ff88aa"/><rect x="17" y="14" width="1" height="1" fill="#ff88aa"/><rect x="18" y="14" width="1" height="1" fill="#ff88aa"/><rect x="6" y="15" width="1" height="1" fill="#ff88aa"/><rect x="7" y="15" width="1" height="1" fill="#ff88aa"/><rect x="8" y="15" width="1" height="1" fill="#ff88aa"/><rect x="9" y="15" width="1" height="1" fill="#ff88aa"/><rect x="10" y="15" width="1" height="1" fill="#ff88aa"/><rect x="11" y="15" width="1" height="1" fill="#ff88aa"/><rect x="12" y="15" width="1" height="1" fill="#ff88aa"/><rect x="13" y="15" width="1" height="1" fill="#ff88aa"/><rect x="14" y="15" width="1" height="1" fill="#ff88aa"/><rect x="15" y="15" width="1" height="1" fill="#ff88aacc"/><rect x="16" y="15" width="1" height="1" fill="#ff88aa"/><rect x="17" y="15" width="1" height="1" fill="#ff88aa"/><rect x="18" y="15" width="1" height="1" fill="#ff88aa"/><rect x="6" y="16" width="1" height="1" fill="#ff88aacc"/><rect x="7" y="16" width="1" height="1" fill="#ff88aa"/><rect x="8" y="16" width="1" height="1" fill="#ff88aa"/><rect x="9" y="16" width="1" height="1" fill="#ff88aa"/><rect x="10" y="16" width="1" height="1" fill="#ff88aa"/><rect x="11" y="16" width="1" height="1" fill="#ff88aa"/><rect x="12" y="16" width="1" height="1" fill="#ff88aa"/><rect x="13" y="16" width="1" height="1" fill="#ff88aa"/><rect x="14" y="16" width="1" height="1" fill="#ff88aa"/><rect x="15" y="16" width="1" height="1" fill="#ff88aa"/><rect x="16" y="16" width="1" height="1" fill="#ff88aa"/><rect x="17" y="16" width="1" height="1" fill="#ff88aa"/><rect x="18" y="16" width="1" height="1" fill="#ff88aa"/><rect x="7" y="17" width="1" height="1" fill="#ff88aa"/><rect x="8" y="17" width="1" height="1" fill="#ff88aa"/><rect x="9" y="17" width="1" height="1" fill="#ff88aa"/><rect x="10" y="17" width="1" height="1" fill="#ff88aa"/><rect x="11" y="17" width="1" height="1" fill="#ff88aa"/><rect x="12" y="17" width="1" height="1" fill="#ff88aa"/><rect x="13" y="17" width="1" height="1" fill="#ff88aa"/><rect x="14" y="17" width="1" height="1" fill="#ff88aa"/><rect x="15" y="17" width="1" height="1" fill="#ff88aa"/><rect x="16" y="17" width="1" height="1" fill="#ff88aa"/><rect x="17" y="17" width="1" height="1" fill="#ff88aa"/><rect x="9" y="18" width="1" height="1" fill="#ff88aacc"/><rect x="10" y="18" width="1" height="1" fill="#ff88aa"/><rect x="11" y="18" width="1" height="1" fill="#ff88aa"/><rect x="12" y="18" width="1" height="1" fill="#ff88aa"/><rect x="13" y="18" width="1" height="1" fill="#ff88aa"/><rect x="14" y="18" width="1" height="1" fill="#ff88aa"/><rect x="15" y="18" width="1" height="1" fill="#ff88aa"/>
</svg>